<svg id="Слой_1" data-name="Слой 1" xmlns="http://www.w3.org/2000/svg" width="564.44mm" height="377.12mm" viewBox="0 0 1600 1069">
  <defs>
    <style>
      .cls-1 {
        fill: #ef2a82;
      }

      .cls-2 {
        fill: #172755;
      }

      .cls-3 {
        opacity: 0.07;
      }

      .cls-4 {
        fill: #8794ba;
      }
    </style>
  </defs>
  <path class="cls-1" d="M1600,245H0V190.76L1600,0Z"/>
  <path class="cls-2" d="M1600,1094.1H0V211.82L1600,25.1Z"/>
  <g class="cls-3">
    <path class="cls-4" d="M1782.6,398.78C1655.06,212.72,1441,90.66,1198.35,90.66c-390.9,0-707.84,316.94-707.84,707.84a710.08,710.08,0,0,0,19.38,165.17L870.35,603.23a88.47,88.47,0,0,1,125.12,0h0l291.39,291.33Z"/>
    <path class="cls-4" d="M1866.73,564.91l-517.34,517.35a88.49,88.49,0,0,1-125.13,0h0L932.91,790.9,580.2,1143.62c121.09,216.41,352.53,362.72,618.15,362.72,390.92,0,707.83-316.91,707.83-707.84A706.62,706.62,0,0,0,1866.73,564.91Z"/>
  </g>
</svg>
